<svg xmlns="http://www.w3.org/2000/svg" viewBox="0 0 81.81 2176.46"><defs><style>.cls-1{fill:#ecc236;}</style></defs><title>Asset 15bee</title><g id="Layer_2" data-name="Layer 2"><g id="Layer_1-2" data-name="Layer 1"><polygon class="cls-1" points="46.16 47.9 45.62 55.09 44.9 64.53 58.68 73.94 59.35 64.99 59.94 57.31 46.16 47.9"/><polygon class="cls-1" points="44.9 64.53 44.9 64.53 58.68 73.94 59.35 64.99 58.68 73.94 44.9 64.53"/><polygon class="cls-1" points="46.16 47.9 45.62 55.09 46.16 47.9 46.16 47.9"/><polygon class="cls-1" points="17.77 70.85 25.93 66.93 32.81 63.62 33.4 55.79 34.06 46.99 19.03 54.22 17.77 70.85"/><polygon class="cls-1" points="34.06 46.99 34.06 46.99 33.4 55.79 34.06 46.99"/><polygon class="cls-1" points="66.78 47.29 81.81 40.06 68.03 30.66 53 37.88 66.78 47.29"/><polygon class="cls-1" points="66.78 47.29 66.78 47.29 81.81 40.06 68.03 30.66 68.03 30.66 81.81 40.06 66.78 47.29"/><polygon class="cls-1" points="5.56 31.2 0 33.88 8.15 39.44 13.78 43.28 16.85 41.8 28.81 36.05 15.03 26.65 5.56 31.2"/><polygon class="cls-1" points="28.81 36.05 28.81 36.05 16.85 41.8 28.81 36.05"/><polygon class="cls-1" points="13.78 43.28 13.78 43.28 8.15 39.44 13.78 43.28"/><polygon class="cls-1" points="15.03 26.65 5.56 31.2 15.03 26.65 15.03 26.65"/><polygon class="cls-1" points="31.66 5.82 23.13 0 21.87 16.63 35.65 26.04 36.9 9.4 31.66 5.82"/><polygon class="cls-1" points="36.9 9.4 35.65 26.04 35.65 26.04 36.9 9.4 31.66 5.82 36.9 9.4"/><polygon class="cls-1" points="49 10.32 47.74 26.95 62.77 19.73 63.05 16.11 64.03 3.09 57.91 6.03 49 10.32"/><polygon class="cls-1" points="49 10.32 57.91 6.03 49 10.32 47.74 26.95 62.77 19.73 62.77 19.73 47.74 26.95 49 10.32"/><polygon class="cls-1" points="64.03 3.09 64.03 3.09 63.05 16.11 64.03 3.09"/><polygon class="cls-1" points="52.66 339.97 57.82 345.01 64.59 351.63 80.65 347.12 74.23 340.85 68.72 335.46 52.66 339.97"/><polygon class="cls-1" points="64.59 351.63 64.59 351.63 80.65 347.12 74.23 340.85 80.65 347.12 64.59 351.63"/><polygon class="cls-1" points="52.66 339.97 57.82 345.01 52.66 339.97 52.66 339.97"/><polygon class="cls-1" points="51.99 376.46 54.23 367.7 56.11 360.3 50.5 354.82 44.18 348.65 40.05 364.81 51.99 376.46"/><polygon class="cls-1" points="44.18 348.65 44.18 348.65 50.5 354.82 44.18 348.65"/><polygon class="cls-1" points="65.44 323.78 69.56 307.62 53.51 312.13 49.38 328.29 65.44 323.78"/><polygon class="cls-1" points="65.44 323.78 65.44 323.78 69.56 307.62 53.51 312.13 53.51 312.13 69.56 307.62 65.44 323.78"/><polygon class="cls-1" points="13.77 360.34 12.24 366.32 21.74 363.65 28.3 361.81 29.14 358.5 32.43 345.65 16.37 350.15 13.77 360.34"/><polygon class="cls-1" points="32.43 345.65 32.43 345.65 29.14 358.5 32.43 345.65"/><polygon class="cls-1" points="28.3 361.81 28.3 361.81 21.74 363.65 28.3 361.81"/><polygon class="cls-1" points="16.37 350.15 13.77 360.34 16.37 350.15 16.37 350.15"/><polygon class="cls-1" points="11.1 324.03 1.16 326.82 13.09 338.48 29.15 333.97 17.22 322.31 11.1 324.03"/><polygon class="cls-1" points="17.22 322.31 29.15 333.97 29.15 333.97 17.22 322.31 11.1 324.03 17.22 322.31"/><polygon class="cls-1" points="25.69 313.64 37.63 325.29 41.75 309.13 39.16 306.6 29.82 297.48 28.14 304.06 25.69 313.64"/><polygon class="cls-1" points="25.69 313.64 28.14 304.06 25.69 313.64 37.63 325.29 41.75 309.13 41.75 309.13 37.63 325.29 25.69 313.64"/><polygon class="cls-1" points="29.82 297.48 29.82 297.48 39.16 306.6 29.82 297.48"/><polygon class="cls-1" points="50.76 629.9 57.94 629.18 67.36 628.25 74.22 613.05 65.3 613.93 57.63 614.7 50.76 629.9"/><polygon class="cls-1" points="67.36 628.25 67.36 628.25 74.22 613.04 65.3 613.93 74.22 613.05 67.36 628.25"/><polygon class="cls-1" points="50.76 629.9 57.94 629.18 50.76 629.9 50.76 629.9"/><polygon class="cls-1" points="78.28 653.87 73.01 646.52 68.56 640.32 60.74 641.09 51.96 641.97 61.69 655.51 78.28 653.87"/><polygon class="cls-1" points="51.96 641.97 51.96 641.97 60.74 641.09 51.96 641.97"/><polygon class="cls-1" points="46.57 609.7 36.85 596.15 29.98 611.35 39.7 624.9 46.57 609.7"/><polygon class="cls-1" points="46.57 609.7 46.57 609.7 36.85 596.15 29.98 611.35 29.98 611.35 36.85 596.15 46.57 609.7"/><polygon class="cls-1" points="41.36 672.77 44.96 677.79 49.02 668.8 51.83 662.59 49.84 659.82 42.1 649.04 35.23 664.24 41.36 672.77"/><polygon class="cls-1" points="42.1 649.04 42.1 649.04 49.84 659.82 42.1 649.04"/><polygon class="cls-1" points="51.83 662.59 51.83 662.59 49.02 668.8 51.83 662.59"/><polygon class="cls-1" points="35.23 664.24 41.36 672.77 35.23 664.24 35.23 664.24"/><polygon class="cls-1" points="11.84 651.48 7.58 660.89 24.18 659.24 31.05 644.04 14.45 645.7 11.84 651.48"/><polygon class="cls-1" points="14.45 645.7 31.05 644.04 31.05 644.04 14.45 645.7 11.84 651.48 14.45 645.7"/><polygon class="cls-1" points="13.25 633.62 29.85 631.97 20.12 618.42 16.51 618.78 3.52 620.07 7.49 625.59 13.25 633.62"/><polygon class="cls-1" points="13.25 633.62 7.49 625.59 13.25 633.62 29.85 631.97 20.12 618.42 20.12 618.42 29.85 631.97 13.25 633.62"/><polygon class="cls-1" points="3.52 620.07 3.52 620.07 16.51 618.78 3.52 620.07"/><polygon class="cls-1" points="41.82 924.87 45.89 918.92 51.22 911.1 43.99 896.07 38.94 903.47 34.59 909.84 41.82 924.87"/><polygon class="cls-1" points="51.22 911.1 51.22 911.1 43.99 896.07 38.94 903.47 43.99 896.07 51.22 911.1"/><polygon class="cls-1" points="41.82 924.87 45.89 918.92 41.82 924.87 41.82 924.87"/><polygon class="cls-1" points="77.87 919.2 68.85 918.51 61.24 917.94 56.81 924.42 51.84 931.71 68.47 932.97 77.87 919.2"/><polygon class="cls-1" points="51.84 931.71 51.84 931.71 56.81 924.42 51.84 931.71"/><polygon class="cls-1" points="23.66 915.1 7.03 913.84 14.25 928.87 30.89 930.13 23.66 915.1"/><polygon class="cls-1" points="23.66 915.1 23.66 915.1 7.03 913.84 14.25 928.87 14.25 928.87 7.03 913.84 23.66 915.1"/><polygon class="cls-1" points="68.63 959.63 74.78 960.1 70.5 951.21 67.55 945.07 64.15 944.81 50.92 943.81 58.15 958.84 68.63 959.63"/><polygon class="cls-1" points="50.92 943.81 50.92 943.81 64.15 944.81 50.92 943.81"/><polygon class="cls-1" points="67.55 945.07 67.55 945.07 70.5 951.21 67.55 945.07"/><polygon class="cls-1" points="58.15 958.84 68.63 959.63 58.15 958.84 58.15 958.84"/><polygon class="cls-1" points="33.34 968.56 37.81 977.87 47.22 964.1 39.99 949.07 30.59 962.84 33.34 968.56"/><polygon class="cls-1" points="30.59 962.84 39.99 949.07 39.99 949.07 30.59 962.84 33.34 968.56 30.59 962.84"/><polygon class="cls-1" points="20.57 956 29.97 942.23 13.34 940.97 11.29 943.96 3.94 954.74 10.71 955.25 20.57 956"/><polygon class="cls-1" points="20.57 956 10.71 955.25 20.57 956 29.97 942.23 13.34 940.97 13.34 940.97 29.97 942.23 20.57 956"/><polygon class="cls-1" points="3.93 954.74 3.94 954.74 11.29 943.96 3.93 954.74"/><polygon class="cls-1" points="32.23 1228.49 30.28 1221.55 27.72 1212.43 11.56 1208.31 13.98 1216.94 16.06 1224.37 32.23 1228.49"/><polygon class="cls-1" points="27.72 1212.43 27.72 1212.43 11.56 1208.31 13.98 1216.94 11.56 1208.31 27.72 1212.43"/><polygon class="cls-1" points="32.23 1228.49 30.28 1221.55 32.23 1228.49 32.23 1228.49"/><polygon class="cls-1" points="51.05 1197.22 44.73 1203.69 39.4 1209.16 41.52 1216.71 43.91 1225.22 55.56 1213.28 51.05 1197.22"/><polygon class="cls-1" points="43.91 1225.22 43.91 1225.22 41.52 1216.71 43.91 1225.22"/><polygon class="cls-1" points="13.06 1236.12 1.41 1248.05 17.57 1252.18 29.23 1240.25 13.06 1236.12"/><polygon class="cls-1" points="13.06 1236.12 13.06 1236.12 1.41 1248.05 17.57 1252.18 17.57 1252.18 1.41 1248.05 13.06 1236.12"/><polygon class="cls-1" points="76.09 1230.3 80.4 1225.88 70.84 1223.44 64.24 1221.76 61.85 1224.2 52.58 1233.69 68.74 1237.82 76.09 1230.3"/><polygon class="cls-1" points="52.58 1233.69 52.58 1233.69 61.85 1224.2 52.58 1233.69"/><polygon class="cls-1" points="64.24 1221.76 64.24 1221.76 70.84 1223.44 64.24 1221.76"/><polygon class="cls-1" points="68.74 1237.82 76.09 1230.3 68.74 1237.82 68.74 1237.82"/><polygon class="cls-1" points="60.24 1263.07 70.25 1265.63 65.74 1249.57 49.58 1245.44 54.09 1261.5 60.24 1263.07"/><polygon class="cls-1" points="54.09 1261.5 49.58 1245.44 49.58 1245.44 54.09 1261.5 60.24 1263.07 54.09 1261.5"/><polygon class="cls-1" points="42.41 1264.78 37.9 1248.72 26.25 1260.65 27.23 1264.15 30.76 1276.71 35.5 1271.86 42.41 1264.78"/><polygon class="cls-1" points="42.41 1264.78 35.5 1271.86 42.41 1264.78 37.9 1248.72 26.25 1260.65 26.25 1260.65 37.9 1248.72 42.41 1264.78"/><polygon class="cls-1" points="30.75 1276.71 30.76 1276.71 27.23 1264.15 30.75 1276.71"/><polygon class="cls-1" points="28.83 1538.17 22.26 1535.2 13.63 1531.3 0.09 1541.03 8.26 1544.72 15.28 1547.9 28.83 1538.17"/><polygon class="cls-1" points="13.63 1531.3 13.63 1531.3 0.08 1541.03 8.26 1544.72 0.09 1541.03 13.63 1531.3"/><polygon class="cls-1" points="28.83 1538.17 22.26 1535.2 28.83 1538.17 28.83 1538.17"/><polygon class="cls-1" points="16.98 1503.65 17.88 1512.65 18.63 1520.24 25.78 1523.48 33.83 1527.12 32.18 1510.52 16.98 1503.65"/><polygon class="cls-1" points="33.83 1527.12 33.83 1527.12 25.78 1523.48 33.83 1527.12"/><polygon class="cls-1" points="22.36 1557.75 24.01 1574.35 37.56 1564.62 35.91 1548.02 22.36 1557.75"/><polygon class="cls-1" points="22.36 1557.75 22.36 1557.75 24.01 1574.35 37.56 1564.62 37.56 1564.62 24.01 1574.35 22.36 1557.75"/><polygon class="cls-1" points="58.41 1505.73 57.8 1499.59 49.78 1505.34 44.25 1509.32 44.59 1512.71 45.9 1525.92 59.45 1516.19 58.41 1505.73"/><polygon class="cls-1" points="45.9 1525.92 45.9 1525.92 44.59 1512.71 45.9 1525.92"/><polygon class="cls-1" points="44.25 1509.32 44.25 1509.32 49.78 1505.34 44.25 1509.32"/><polygon class="cls-1" points="59.45 1516.19 58.41 1505.73 59.45 1516.19 59.45 1516.19"/><polygon class="cls-1" points="73.33 1538.93 81.72 1532.91 66.52 1526.04 52.98 1535.77 68.17 1542.64 73.33 1538.93"/><polygon class="cls-1" points="68.17 1542.64 52.98 1535.77 52.98 1535.77 68.17 1542.64 73.33 1538.93 68.17 1542.64"/><polygon class="cls-1" points="63.18 1553.69 47.98 1546.82 49.63 1563.42 52.93 1564.91 64.83 1570.29 64.16 1563.53 63.18 1553.69"/><polygon class="cls-1" points="63.18 1553.69 64.16 1563.53 63.18 1553.69 47.98 1546.82 49.63 1563.42 49.63 1563.42 47.98 1546.82 63.18 1553.69"/><polygon class="cls-1" points="64.83 1570.29 64.83 1570.29 52.93 1564.91 64.83 1570.29"/><polygon class="cls-1" points="34.06 1846.99 27.56 1850.11 19.03 1854.21 17.77 1870.85 25.86 1866.96 32.81 1863.62 34.06 1846.99"/><polygon class="cls-1" points="19.03 1854.21 19.03 1854.21 17.77 1870.85 25.86 1866.96 17.77 1870.85 19.03 1854.21"/><polygon class="cls-1" points="34.06 1846.99 27.56 1850.11 34.06 1846.99 34.06 1846.99"/><polygon class="cls-1" points="0 1833.88 7.47 1838.98 13.78 1843.28 20.85 1839.88 28.81 1836.05 15.03 1826.65 0 1833.88"/><polygon class="cls-1" points="28.81 1836.05 28.81 1836.05 20.85 1839.88 28.81 1836.05"/><polygon class="cls-1" points="44.9 1864.53 58.68 1873.94 59.93 1857.31 46.16 1847.9 44.9 1864.53"/><polygon class="cls-1" points="44.9 1864.53 44.9 1864.53 58.68 1873.94 59.93 1857.31 59.93 1857.31 58.68 1873.94 44.9 1864.53"/><polygon class="cls-1" points="28.23 1803.48 23.13 1800 22.39 1809.84 21.87 1816.63 24.69 1818.56 35.65 1826.04 36.9 1809.4 28.23 1803.48"/><polygon class="cls-1" points="35.65 1826.04 35.65 1826.04 24.69 1818.56 35.65 1826.04"/><polygon class="cls-1" points="21.87 1816.63 21.87 1816.63 22.39 1809.84 21.87 1816.63"/><polygon class="cls-1" points="36.9 1809.4 28.23 1803.48 36.9 1809.4 36.9 1809.4"/><polygon class="cls-1" points="63.25 1813.39 64.03 1803.09 49 1810.32 47.74 1826.95 62.77 1819.72 63.25 1813.39"/><polygon class="cls-1" points="62.77 1819.72 47.74 1826.95 47.74 1826.95 62.78 1819.72 63.25 1813.39 62.77 1819.72"/><polygon class="cls-1" points="68.03 1830.66 53 1837.88 66.77 1847.29 70.04 1845.72 81.81 1840.06 76.2 1836.23 68.03 1830.66"/><polygon class="cls-1" points="68.03 1830.66 76.2 1836.23 68.03 1830.65 53 1837.88 66.77 1847.29 66.77 1847.29 53 1837.88 68.03 1830.66"/><polygon class="cls-1" points="81.81 1840.06 81.81 1840.06 70.04 1845.72 81.81 1840.06"/><polygon class="cls-1" points="44.18 2148.65 42.4 2155.64 40.05 2164.81 51.99 2176.46 54.21 2167.77 56.11 2160.3 44.18 2148.65"/><polygon class="cls-1" points="40.05 2164.81 40.05 2164.81 51.99 2176.46 54.21 2167.77 51.99 2176.46 40.05 2164.81"/><polygon class="cls-1" points="44.18 2148.65 42.4 2155.64 44.18 2148.65 44.18 2148.65"/><polygon class="cls-1" points="12.24 2166.32 20.95 2163.87 28.3 2161.81 30.24 2154.2 32.43 2145.65 16.37 2150.15 12.24 2166.32"/><polygon class="cls-1" points="32.43 2145.65 32.43 2145.65 30.24 2154.2 32.43 2145.65"/><polygon class="cls-1" points="64.59 2151.62 80.65 2147.12 68.72 2135.46 52.66 2139.97 64.59 2151.62"/><polygon class="cls-1" points="64.59 2151.62 64.59 2151.62 80.65 2147.12 68.72 2135.46 68.72 2135.46 80.65 2147.12 64.59 2151.62"/><polygon class="cls-1" points="7.1 2125.15 1.16 2126.82 8.22 2133.72 13.09 2138.47 16.38 2137.55 29.15 2133.97 17.22 2122.31 7.1 2125.15"/><polygon class="cls-1" points="29.15 2133.97 29.15 2133.97 16.38 2137.55 29.15 2133.97"/><polygon class="cls-1" points="13.09 2138.47 13.09 2138.47 8.22 2133.72 13.09 2138.47"/><polygon class="cls-1" points="17.22 2122.31 7.1 2125.15 17.22 2122.31 17.22 2122.31"/><polygon class="cls-1" points="37.21 2104.69 29.82 2097.47 25.69 2113.64 37.63 2125.29 41.75 2109.13 37.21 2104.69"/><polygon class="cls-1" points="41.75 2109.13 37.63 2125.29 37.63 2125.29 41.75 2109.13 37.21 2104.69 41.75 2109.13"/><polygon class="cls-1" points="53.51 2112.13 49.38 2128.29 65.44 2123.78 66.33 2120.27 69.56 2107.62 63.02 2109.46 53.51 2112.13"/><polygon class="cls-1" points="53.51 2112.13 63.02 2109.46 53.51 2112.13 49.38 2128.29 65.44 2123.78 65.44 2123.78 49.38 2128.29 53.51 2112.13"/><polygon class="cls-1" points="69.56 2107.62 69.56 2107.62 66.33 2120.27 69.56 2107.62"/></g></g></svg>