<svg xmlns="http://www.w3.org/2000/svg" viewBox="0 0 601.92 695.04"><defs><style>.cls-1{fill:#fff;}</style></defs><title>Asset 14bee</title><g id="Layer_2" data-name="Layer 2"><g id="Layer_1-2" data-name="Layer 1"><polygon class="cls-1" points="131.76 368.67 145.53 359.27 145.53 359.27 145.53 359.27 143.06 358.08 130.5 352.04 116.72 361.44 116.72 361.44 116.72 361.44 128.83 367.26 131.76 368.67"/><polygon class="cls-1" points="92.53 363.27 92.53 363.27 77.5 356.05 63.73 365.45 63.73 365.45 63.73 365.45 78.76 372.68 92.53 363.27 92.53 363.27"/><polygon class="cls-1" points="97.79 352.34 97.79 352.34 97.79 352.34 96.53 335.71 96.53 335.71 85.77 330.53 81.5 328.48 81.5 328.48 81.5 328.48 82.76 345.12 97.79 352.34"/><path class="cls-1" d="M105.25,363.26a4,4,0,0,1,.47-1h0l0,0a4.23,4.23,0,0,1-.59-.86l-.43.1h-.4l-.26,0a3.42,3.42,0,0,1-.27.62c-.06.13-.13.25-.2.37h0a4.83,4.83,0,0,1,.58.84l0,.07h0l.28,0a3.15,3.15,0,0,1,.53,0Z"/><polygon class="cls-1" points="333.52 507.27 333.52 507.27 333.52 507.27 321.87 507.8 322.5 521.73 323.17 536.47 309.47 517.48 303.1 508.65 303.1 508.65 303.1 508.65 283.31 509.55 283.31 509.55 283.31 509.55 284.82 543.05 286.57 581.73 294.29 581.38 298.23 581.2 297.17 557.86 296.27 537.89 296.53 538.27 326.27 579.93 334.29 579.57 336.79 579.46 336.79 579.46 336.79 579.46 335.12 542.44 333.52 507.27"/><polygon class="cls-1" points="196.88 474.09 196.88 474.09 182.27 457.25 160.37 476.25 151.98 466.58 173.89 447.58 173.89 447.58 173.89 447.58 159.28 430.74 104.7 478.08 104.7 478.08 104.7 478.08 111.84 486.31 119.31 494.92 137.74 478.94 143.72 473.75 152.1 483.42 127.7 504.59 127.7 504.59 127.7 504.59 142.3 521.43 196.88 474.09 196.88 474.09"/><path class="cls-1" d="M238.63,494.85A29.38,29.38,0,0,0,219,493.28a27.36,27.36,0,0,0-3.22,1.13l-.33.14a29.06,29.06,0,0,0-3.26,1.72,30.47,30.47,0,0,0-3.13,2.19l-.22.17c-5.19,4.19-9.71,10.44-13.19,18.76-7.87,18.84-4.45,34,7.2,42.53a33.87,33.87,0,0,0,7,3.9c16.54,6.91,32.8.13,42.23-20.53.29-.64.58-1.3.86-2C262.17,519.12,255.68,502,238.63,494.85Zm.91,17.69a5.43,5.43,0,0,1-.29.92l-5.46,13L223.56,551a5.57,5.57,0,0,1-2.94,3,6.49,6.49,0,0,1-1.4.42,9.33,9.33,0,0,1-5.2-.74c-4.28-1.79-6.22-5.18-4.83-8.51L221,517l4-9.53a5.36,5.36,0,0,1,1.25-1.84,5.14,5.14,0,0,1,1.22-.9c.18-.09.37-.17.57-.25a6.42,6.42,0,0,1,1.91-.41,9,9,0,0,1,2.16.15l.76.18a9.42,9.42,0,0,1,.95.3l.63.24a12.46,12.46,0,0,1,1.16.56C238.68,507.2,240.18,509.83,239.54,512.54Z"/><polygon class="cls-1" points="324.2 185.75 337.02 189.34 352.01 164.49 351.83 193.48 364.65 197.07 369.48 189.03 403.2 132.83 391.68 129.6 391.68 129.6 391.68 129.6 374.21 158.69 374.28 124.73 364.04 121.87 364.04 121.87 364.04 121.87 363.23 123.21 346.66 150.66 346.74 121.05 346.75 117.03 346.75 117.03 346.75 117.03 324.48 110.8 324.2 185.75 324.2 185.75 324.2 185.75"/><polygon class="cls-1" points="230.71 199.7 230.72 199.7 235.41 198.23 273.77 186.25 273.96 174.72 273.96 174.72 273.96 174.72 257.04 180.01 248.73 182.6 242.36 162.21 247.28 160.67 258.42 157.19 255.16 146.74 255.16 146.74 255.16 146.74 239.1 151.76 237.97 148.13 233.71 134.52 241.37 132.13 256.97 127.25 250.25 117.89 250.25 117.89 250.25 117.89 209.17 130.72 214.95 149.22 230.71 199.7"/><path class="cls-1" d="M381.61,203.67h0l6,5.13,3.41,2.91,6.55-4,2.46-1.5,9.36,8,5.47,4.67-4,9.76h0l18,15.36,27.93-71.17h0L454,170.5l-6.58-5.62-40.6,23.92-25.24,14.87Zm44.79-13.19-.9,2.2-6.35,15.5-5-4.29L410,200.34Z"/><polygon class="cls-1" points="122.67 328.98 122.4 325.39 122.4 325.39 122.4 325.39 108.63 334.79 108.85 337.74 109.89 351.43 109.89 351.43 109.89 351.43 123.66 342.02 122.67 328.98"/><polygon class="cls-1" points="183.73 233.82 183.73 233.82 183.73 233.82 219.24 206.01 218.31 203.41 215.35 195.17 215.34 195.17 215.34 195.17 212.31 197.55 194.54 211.46 181.36 194.63 185.75 191.2 194.61 184.26 194.06 183.56 187.87 175.65 187.87 175.65 187.87 175.65 174.62 186.02 173.26 184.28 163.48 171.8 182.66 156.78 175.08 151.73 173.07 150.39 139.18 176.93 155.93 198.32 183.73 233.82"/><polygon class="cls-1" points="126.64 381.45 126.5 379.6 124.73 378.75 111.47 372.38 111.47 372.38 111.47 372.38 112.73 389.01 112.73 389.01 112.73 389.01 113.2 389.24 127.76 396.24 127.76 396.24 127.76 396.24 126.64 381.45"/><path class="cls-1" d="M146.85,292.19h0l14.45-25.63q1.8-3.18,3.17-6.23c4.88-10.88,5.26-20.34-3.11-26.77a23.87,23.87,0,0,0-2.9-1.91c-8.72-4.92-16.25-3.12-23,3.39,1.1-7.21-1-13.37-8.2-17.42-8.75-4.94-16.27-2-22.51,4.69a53.18,53.18,0,0,0-7.16,10.1L83.9,256.69l27.86,15.71Zm-13.69-41.5c1.37-2.43,4.05-3.09,6.85-2.19a10.06,10.06,0,0,1,1.86.82l6.74,3.8c3.51,2,4.83,5.1,3.16,8.06l-.49.88-3,5.33-4.54-2.56-14.07-7.94Zm-26.23-12.55.19-.35a5.07,5.07,0,0,1,4.65-2.71,7.25,7.25,0,0,1,2.75.65c.26.12.52.24.78.39l1.32.74,3.8,2.15c3.06,1.72,4.11,4.69,2.44,7.65l-2.74,4.86-15.74-8.88Z"/><polygon class="cls-1" points="85.6 382.7 85.6 382.7 86.86 399.33 100.63 389.92 100.63 389.92 99.37 373.29 85.6 382.7"/><polygon class="cls-1" points="502.55 373.29 502.55 373.29 502 380.48 501.29 389.92 501.29 389.92 501.29 389.92 515.07 399.33 515.74 390.38 516.32 382.7 502.55 373.29 502.55 373.29"/><path class="cls-1" d="M497.91,361.46h0a3.44,3.44,0,0,1-.55,0,3.23,3.23,0,0,1-.54-.11c-.06.11-.13.21-.19.31a1.82,1.82,0,0,1-.15.23c-.09.13-.18.25-.28.37h0l.09.16a4.12,4.12,0,0,1,.32.67.94.94,0,0,1,.06.15,4.54,4.54,0,0,1,1.1.09,4,4,0,0,1,.39-.62,3.15,3.15,0,0,1,.22-.29h0A4.42,4.42,0,0,1,497.91,361.46Z"/><polygon class="cls-1" points="514.3 331.42 505.39 335.71 504.13 352.34 519.16 345.12 519.16 345.12 519.16 345.12 519.44 341.5 520.42 328.48 520.42 328.48 520.42 328.48 514.3 331.42"/><polygon class="cls-1" points="465.04 244.03 448.62 252.98 436.76 259.44 439.92 265.23 447.43 279.02 453.8 275.55 475.71 263.6 520.4 261.92 520.4 261.92 520.4 261.92 514.23 250.59 514.23 250.59 514.23 250.59 486.83 251.66 499.31 233.85 502.57 229.21 490.66 207.37 490.66 207.37 490.66 207.37 478.81 224.32 465.04 244.03"/><polygon class="cls-1" points="479.52 325.39 478.26 342.02 492.03 351.43 492.03 351.43 492.03 351.43 493.29 334.79 488.05 331.21 479.52 325.39"/><polygon class="cls-1" points="523.16 372.68 523.16 372.68 523.16 372.68 538.19 365.45 524.42 356.05 524.42 356.05 524.42 356.05 509.38 363.27 523.16 372.68"/><polygon class="cls-1" points="475.42 379.6 474.16 396.24 474.16 396.24 474.16 396.24 482.31 392.32 489.19 389.01 489.79 381.18 490.45 372.38 490.45 372.38 490.45 372.38 475.42 379.6"/><path class="cls-1" d="M375.42,416.88,384,412l12.62-7.28.13-.08,1.4-.81.14-.08h0V360.81L384,352.55l-8.54-4.93-.18-.1.17-.1,8.42-4.86.13-.08,2.21-1.27,12.09-7h0V291.34L384,283.09l-1.18-.68-7.36-4.26-9-5.19-1.73-1-3.58-2.07-14.3,8.25-8.54,4.94-.18.1V256.61l-14.3-8.25-6.86-4-1.68-1L311,240.93l-8.31-4.79-1-.58-.52-.31-.15-.08-14.3,8.25-.45.26-8.09,4.68L268,254.22l-.57.32-3.58,2.07h0v26.58l-.17-.1-8.55-4.94-14.3-8.25-14.29,8.25-7.23,4.17-1.32.77-2,1.12-10.66,6.16-1.54.89-.15.08h0v42.89l14.3,8.25,8.54,4.94.18.1-.17.1L218,352.55l-14.3,8.26h0v42.88L218,412l8.54,4.93,10.72,6.19,3.58,2.07,14.3-8.26,8.55-4.93h0l.17-.09v26.57l14.3,8.26,8.54,4.93,12.62,7.29.52.3,1,.58.1.06,0,0,14.3-8.26,8.54-4.93,10.72-6.19,3.58-2.06V411.85l.16.09h0l8.55,4.93,14.3,8.26Zm-28.5-69.32-.1.06-8.55,4.93-14.19,8.2-.1.06h0v26.57l-.18-.1-8.54-4.93-8.51-4.91L301,374.09l-.6.35-8.58,4.95-3.1,1.79-2,1.17-3.44,2L278,387.38V360.8h0l-5.5-3.18-3.67-2.12-2-1.19-3.07-1.77-6.23-3.6-2.49-1.43.17-.1,8.55-4.93,14.3-8.26h0V307.65l.17.1,5.75,3.32,2.79,1.62,5.19,3,9.11,5.26,9.18-5.3,3.29-1.9,1.83-1.05,8.72-5v26.58l9.17,5.3,5.12,3,5.83,3.37,2.89,1.67Z"/><polygon class="cls-1" points="423.33 535.26 423.33 535.26 411.5 541.13 399.66 547.01 390.16 527.88 405.23 520.4 405.23 520.4 405.23 520.4 401.59 513.06 400.36 510.6 400.36 510.6 400.36 510.6 392.83 514.34 385.29 518.08 381.01 509.46 377.26 501.9 393.91 493.63 399.07 491.07 399.07 491.07 399.07 491.07 391.02 482.92 390.97 482.88 390.97 482.88 362.13 497.2 352.43 502.02 352.43 502.02 352.43 502.02 384.56 566.73 424.96 546.67 423.33 535.26 423.33 535.26"/><polygon class="cls-1" points="473.41 475.81 463.48 467.48 451.19 439.31 445.59 426.49 437.3 436.38 437.3 436.38 437.3 436.38 448.3 461.49 438.51 459.12 421.65 455.04 405.67 474.11 405.67 474.11 405.67 474.11 431.97 480.43 449.16 484.56 473.84 505.25 488.16 488.17 488.16 488.17 488.16 488.17 473.41 475.81"/><polygon class="cls-1" points="471.42 352.04 471.42 352.04 471.42 352.04 461.95 356.59 456.39 359.27 464.54 364.83 470.16 368.67 470.16 368.67 470.16 368.67 473.24 367.19 485.2 361.44 485.2 361.44 485.2 361.44 471.42 352.04"/><polygon class="cls-1" points="419.15 208.18 425.5 192.68 426.4 190.48 409.97 200.34 414.13 203.89 419.15 208.18"/><polygon points="419.15 208.18 425.5 192.68 426.4 190.48 409.97 200.34 414.13 203.89 419.15 208.18"/><path class="cls-1" d="M148.27,267.39l3-5.33.49-.88c1.67-3,.35-6.08-3.16-8.06l-6.74-3.8a10.06,10.06,0,0,0-1.86-.82c-2.8-.9-5.48-.24-6.85,2.19l-3.5,6.2,14.07,7.94Z"/><path d="M148.27,267.39l3-5.33.49-.88c1.67-3,.35-6.08-3.16-8.06l-6.74-3.8a10.06,10.06,0,0,0-1.86-.82c-2.8-.9-5.48-.24-6.85,2.19l-3.5,6.2,14.07,7.94Z"/><path class="cls-1" d="M235.57,505.51a12.46,12.46,0,0,0-1.16-.56l-.63-.24a9.42,9.42,0,0,0-.95-.3l-.76-.18a9,9,0,0,0-2.16-.15,6.42,6.42,0,0,0-1.91.41c-.2.08-.39.16-.57.25a5.14,5.14,0,0,0-1.22.9,5.36,5.36,0,0,0-1.25,1.84L221,517l-11.79,28.2c-1.39,3.33.55,6.72,4.83,8.51a9.33,9.33,0,0,0,5.2.74,6.49,6.49,0,0,0,1.4-.42,5.57,5.57,0,0,0,2.94-3l10.23-24.48,5.46-13a5.43,5.43,0,0,0,.29-.92C240.18,509.83,238.68,507.2,235.57,505.51Z"/><path d="M235.57,505.51a12.46,12.46,0,0,0-1.16-.56l-.63-.24a9.42,9.42,0,0,0-.95-.3l-.76-.18a9,9,0,0,0-2.16-.15,6.42,6.42,0,0,0-1.91.41c-.2.08-.39.16-.57.25a5.14,5.14,0,0,0-1.22.9,5.36,5.36,0,0,0-1.25,1.84L221,517l-11.79,28.2c-1.39,3.33.55,6.72,4.83,8.51a9.33,9.33,0,0,0,5.2.74,6.49,6.49,0,0,0,1.4-.42,5.57,5.57,0,0,0,2.94-3l10.23-24.48,5.46-13a5.43,5.43,0,0,0,.29-.92C240.18,509.83,238.68,507.2,235.57,505.51Z"/><path class="cls-1" d="M122.86,246.66c1.67-3,.62-5.93-2.44-7.65l-3.8-2.15-1.32-.74c-.26-.15-.52-.27-.78-.39a7.25,7.25,0,0,0-2.75-.65,5.07,5.07,0,0,0-4.65,2.71l-.19.35-2.55,4.5,15.74,8.88Z"/><path d="M122.86,246.66c1.67-3,.62-5.93-2.44-7.65l-3.8-2.15-1.32-.74c-.26-.15-.52-.27-.78-.39a7.25,7.25,0,0,0-2.75-.65,5.07,5.07,0,0,0-4.65,2.71l-.19.35-2.55,4.5,15.74,8.88Z"/><polygon class="cls-1" points="338.27 342.48 333.15 339.53 323.98 334.23 323.98 317.72 323.98 307.85 323.98 307.65 315.26 312.69 313.43 313.74 310.14 315.64 300.96 320.94 291.85 315.68 286.66 312.69 283.87 311.07 278.12 307.75 277.94 307.65 277.94 317.72 277.94 323.63 277.94 334.23 277.94 334.23 277.94 334.23 263.65 342.49 255.1 347.42 254.93 347.52 257.42 348.95 263.65 352.55 266.72 354.32 268.77 355.51 272.44 357.63 277.94 360.81 277.94 360.81 277.94 360.81 277.94 360.81 277.94 360.81 277.94 377.32 277.94 387.18 277.94 387.38 283.22 384.33 286.66 382.35 288.68 381.18 291.78 379.39 300.36 374.44 300.96 374.09 306.75 377.44 315.26 382.35 323.8 387.28 323.98 387.38 323.98 377.31 323.98 371.4 323.98 360.81 323.98 360.81 324.08 360.75 338.27 352.55 346.82 347.62 346.92 347.56 346.99 347.52 344.1 345.85 338.27 342.48"/><polygon points="338.27 342.48 333.15 339.53 323.98 334.23 323.98 317.72 323.98 307.85 323.98 307.65 315.26 312.69 313.43 313.74 310.14 315.64 300.96 320.94 291.85 315.68 286.66 312.69 283.87 311.07 278.12 307.75 277.94 307.65 277.94 317.72 277.94 323.63 277.94 334.23 277.94 334.23 277.94 334.23 263.65 342.49 255.1 347.42 254.93 347.52 257.42 348.95 263.65 352.55 266.72 354.32 268.77 355.51 272.44 357.63 277.94 360.81 277.94 360.81 277.94 360.81 277.94 360.81 277.94 360.81 277.94 377.32 277.94 387.18 277.94 387.38 283.22 384.33 286.66 382.35 288.68 381.18 291.78 379.39 300.36 374.44 300.96 374.09 306.75 377.44 315.26 382.35 323.8 387.28 323.98 387.38 323.98 377.31 323.98 371.4 323.98 360.81 323.98 360.81 324.08 360.75 338.27 352.55 346.82 347.62 346.92 347.56 346.99 347.52 344.1 345.85 338.27 342.48"/><path class="cls-1" d="M444,106.87l-6.17-3.56-21-36.42-102.21-59L302.17.7,301,0,185.11,66.89l-21,36.42-6.17,3.56h-42L29,157,0,173.76V307.54l16.75,29L21,344v7.11L0,387.49V521.28L81.27,568.2l34.59,20h42.05l6.16,3.55,21,36.42L301,695h0l74.37-42.94,41.49-24,21-36.43,6.16-3.55h42.05l115.86-66.89V387.49l-21-36.42h0V344h0l21-36.42V173.76L486.06,106.87Zm3.44,58L454,170.5l2.76,2.36h0L428.86,244l-18-15.36h0l4-9.76-5.47-4.67-9.36-8-2.46,1.5-6.55,4-3.41-2.91-6-5.13h0l25.24-14.87Zm-123-54.08L346.75,117h0v4l-.08,29.61,16.57-27.45.81-1.34h0l10.24,2.86-.07,34,17.47-29.09h0l11.53,3.23L369.48,189l-4.83,8-12.82-3.59.18-29-15,24.85-12.82-3.59h0Zm-74.23,7.09h0l6.72,9.37-15.6,4.87-7.66,2.39L238,148.13l1.14,3.63,16.06-5h0l3.26,10.45-11.14,3.48-4.92,1.54,6.37,20.39L257,180,274,174.72h0l-.18,11.53-38.37,12-4.69,1.47h0L215,149.22l-5.78-18.5Zm-77.18,32.5,2,1.34,7.58,5.05-19.18,15,9.78,12.48,1.36,1.74,13.25-10.37h0l6.19,7.91.55.7-8.86,6.94-4.39,3.43,13.18,16.83,17.77-13.91,3-2.38h0l3,8.23.93,2.61-35.51,27.81h0l-27.8-35.5-16.75-21.39Zm-75.48,82a53.18,53.18,0,0,1,7.16-10.1c6.24-6.72,13.76-9.63,22.51-4.69,7.2,4,9.3,10.21,8.2,17.42,6.75-6.51,14.28-8.31,23-3.39a23.87,23.87,0,0,1,2.9,1.91c8.37,6.43,8,15.89,3.11,26.77q-1.36,3-3.17,6.23l-14.45,25.63h0L111.76,272.4,83.9,256.69Zm30.17,163.83-14.56-7-.47-.23h0l-1.26-16.63h0l13.26,6.37,1.77.85.14,1.85,1.12,14.79Zm-17.87-44.81h0l-1-13.69-.22-2.95,13.77-9.4h0l.27,3.59,1,13Zm6.83,10h0L130.5,352l12.56,6,2.47,1.19h0l-13.77,9.4-2.93-1.41Zm-35.22-33h0l4.27,2,10.76,5.18h0l1.26,16.63h0l-15-7.22L81.5,328.48Zm-2.74,44.2-15-7.23h0l13.78-9.4,15,7.22h0Zm21.87,17.24-13.77,9.41L85.6,382.7h0l13.77-9.41,1.26,16.63Zm3.53-26.57h0l0-.07a4.83,4.83,0,0,0-.58-.84h0c.07-.12.14-.24.2-.37a3.42,3.42,0,0,0,.27-.62l.26,0h.4l.43-.1a4.23,4.23,0,0,0,.59.86l0,0h0a4,4,0,0,0-.47,1H105a3.15,3.15,0,0,0-.53,0ZM142.3,521.43l-14.6-16.84h0l24.4-21.17-8.39-9.67-6,5.19-18.43,16-7.47-8.61-7.14-8.23h0l54.58-47.34,14.61,16.84h0l-21.91,19,8.39,9.67,21.9-19,14.61,16.84h0Zm110.59,19.89c-.28.67-.57,1.33-.86,2-9.43,20.66-25.69,27.44-42.23,20.53a33.87,33.87,0,0,1-7-3.9c-11.65-8.51-15.07-23.69-7.2-42.53,3.48-8.32,8-14.57,13.19-18.76l.22-.17a30.47,30.47,0,0,1,3.13-2.19,29.06,29.06,0,0,1,3.26-1.72l.33-.14a27.36,27.36,0,0,1,3.22-1.13,29.38,29.38,0,0,1,19.64,1.57C255.68,502,262.17,519.12,252.89,541.32Zm83.9,38.14h0l-2.5.11-8,.36-29.74-41.66-.26-.38.9,20,1.06,23.34-3.94.18-7.72.35-1.75-38.68-1.51-33.5h0l19.79-.9h0l6.37,8.82,13.7,19-.67-14.74-.63-13.93,11.65-.53h0l1.6,35.16,1.67,37ZM338.27,412h0l-.16-.09v26.58l-3.58,2.06-10.72,6.19-8.54,4.93L301,459.87l0,0-.1-.06-1-.58-.52-.3-12.62-7.29-8.54-4.93-14.3-8.26V411.85l-.17.09h0l-8.55,4.93-14.3,8.26-3.58-2.07-10.72-6.19L218,412l-14.3-8.26V360.81h0l14.3-8.26,8.55-4.93.17-.1-.18-.1L218,342.48l-14.3-8.25V291.34h0l.15-.08,1.54-.89L216,284.21l2-1.12,1.32-.77,7.23-4.17,14.29-8.25,14.3,8.25,8.55,4.94.17.1V256.61h0l3.58-2.07.57-.32,10.15-5.86,8.09-4.68.45-.26,14.3-8.25.15.08.52.31,1,.58,8.31,4.79,4.31,2.49,1.68,1,6.86,4,14.3,8.25v26.58l.18-.1,8.54-4.94,14.3-8.25L364.7,272l1.73,1,9,5.19,7.36,4.26,1.18.68,14.3,8.25v42.89h0l-12.09,7L384,342.48l-.13.08-8.42,4.86-.17.1.18.1,8.54,4.93,14.3,8.26v42.88h0l-.14.08-1.4.81-.13.08L384,412l-8.54,4.93-14.3,8.26-14.3-8.26Zm46.3,154.78L352.43,502h0l9.7-4.82L391,482.88h0l0,0,8.05,8.15h0l-5.16,2.56-16.65,8.27,3.75,7.56,4.28,8.62,7.54-3.74,7.53-3.74h0l1.23,2.46,3.64,7.34h0l-15.07,7.48,9.5,19.13,11.84-5.87,11.83-5.88h0L425,546.67Zm103.59-78.56-14.32,17.08-24.68-20.68L432,480.43l-26.3-6.32h0l16-19.07,16.86,4.08,9.79,2.37-11-25.11h0l8.29-9.89,5.6,12.82,12.29,28.17,9.93,8.32,14.75,12.37Zm-3-126.73-12,5.75-3.08,1.48h0l-5.62-3.84-8.15-5.56,5.56-2.68,9.47-4.55h0l13.78,9.4Zm5.25,10.94-.66,8.8-.6,7.83-6.88,3.31-8.15,3.92h0l1.26-16.64,15-7.22ZM492,351.43h0L478.26,342l1.26-16.63,8.53,5.82,5.24,3.58Zm6.35,11a3.15,3.15,0,0,0-.22.29,4,4,0,0,0-.39.62,4.54,4.54,0,0,0-1.1-.09.94.94,0,0,0-.06-.15,4.12,4.12,0,0,0-.32-.67l-.09-.16h0c.1-.12.19-.24.28-.37a1.82,1.82,0,0,0,.15-.23c.06-.1.13-.2.19-.31a3.23,3.23,0,0,0,.54.11,3.44,3.44,0,0,0,.55,0h0a4.42,4.42,0,0,0,.47,1Zm17.36,27.94-.67,8.95-13.78-9.41h0l.71-9.44.55-7.19h0l13.77,9.41Zm8.68-34.33h0l13.77,9.4-15,7.23h0l-13.77-9.41,15-7.22Zm-4-27.57-1,13-.28,3.62h0l-15,7.22,1.26-16.63,8.91-4.29,6.12-2.94ZM490.66,207.37h0l11.91,21.84-3.26,4.64-12.48,17.81,27.4-1.07h0l6.17,11.33h0l-44.69,1.68L453.8,275.55,447.43,279l-7.51-13.79-3.15-5.79L448.61,253,465,244l13.77-19.71,11.85-16.95Z"/><path d="M444,106.87l-6.17-3.56-21-36.42-102.21-59L302.17.7,301,0,185.11,66.89l-21,36.42-6.17,3.56h-42L29,157,0,173.76V307.54l16.75,29L21,344v7.11L0,387.49V521.28L81.27,568.2l34.59,20h42.05l6.16,3.55,21,36.42L301,695h0l74.37-42.94,41.49-24,21-36.43,6.16-3.55h42.05l115.86-66.89V387.49l-21-36.42h0V344h0l21-36.42V173.76L486.06,106.87Zm3.44,58L454,170.5l2.76,2.36h0L428.86,244l-18-15.36h0l4-9.76-5.47-4.67-9.36-8-2.46,1.5-6.55,4-3.41-2.91-6-5.13h0l25.24-14.87Zm-123-54.08L346.75,117h0v4l-.08,29.61,16.57-27.45.81-1.34h0l10.24,2.86-.07,34,17.47-29.09h0l11.53,3.23L369.48,189l-4.83,8-12.82-3.59.18-29-15,24.85-12.82-3.59h0Zm-74.23,7.09h0l6.72,9.37-15.6,4.87-7.66,2.39L238,148.13l1.14,3.63,16.06-5h0l3.26,10.45-11.14,3.48-4.92,1.54,6.37,20.39L257,180,274,174.72h0l-.18,11.53-38.37,12-4.69,1.47h0L215,149.22l-5.78-18.5Zm-77.18,32.5,2,1.34,7.58,5.05-19.18,15,9.78,12.48,1.36,1.74,13.25-10.37h0l6.19,7.91.55.7-8.86,6.94-4.39,3.43,13.18,16.83,17.77-13.91,3-2.38h0l3,8.23.93,2.61-35.51,27.81h0l-27.8-35.5-16.75-21.39Zm-75.48,82a53.18,53.18,0,0,1,7.16-10.1c6.24-6.72,13.76-9.63,22.51-4.69,7.2,4,9.3,10.21,8.2,17.42,6.75-6.51,14.28-8.31,23-3.39a23.87,23.87,0,0,1,2.9,1.91c8.37,6.43,8,15.89,3.11,26.77q-1.36,3-3.17,6.23l-14.45,25.63h0L111.76,272.4,83.9,256.69Zm30.17,163.83-14.56-7-.47-.23h0l-1.26-16.63h0l13.26,6.37,1.77.85.14,1.85,1.12,14.79Zm-17.87-44.81h0l-1-13.69-.22-2.95,13.77-9.4h0l.27,3.59,1,13Zm6.83,10h0L130.5,352l12.56,6,2.47,1.19h0l-13.77,9.4-2.93-1.41Zm-35.22-33h0l4.27,2,10.76,5.18h0l1.26,16.63h0l-15-7.22L81.5,328.48Zm-2.74,44.2-15-7.23h0l13.78-9.4,15,7.22h0Zm21.87,17.24-13.77,9.41L85.6,382.7h0l13.77-9.41,1.26,16.63ZM142.3,521.43l-14.6-16.84h0l24.4-21.17-8.39-9.67-6,5.19-18.43,16-7.47-8.61-7.14-8.23h0l54.58-47.34,14.61,16.84h0l-21.91,19,8.39,9.67,21.9-19,14.61,16.84h0Zm110.59,19.89c-.28.67-.57,1.33-.86,2-9.43,20.66-25.69,27.44-42.23,20.53a33.87,33.87,0,0,1-7-3.9c-11.65-8.51-15.07-23.69-7.2-42.53,3.48-8.32,8-14.57,13.19-18.76l.22-.17a30.47,30.47,0,0,1,3.13-2.19,29.06,29.06,0,0,1,3.26-1.72l.33-.14a27.36,27.36,0,0,1,3.22-1.13,29.38,29.38,0,0,1,19.64,1.57C255.68,502,262.17,519.12,252.89,541.32Zm83.9,38.14h0l-2.5.11-8,.36-29.74-41.66-.26-.38.9,20,1.06,23.34-3.94.18-7.72.35-1.75-38.68-1.51-33.5h0l19.79-.9h0l6.37,8.82,13.7,19-.67-14.74-.63-13.93,11.65-.53h0l1.6,35.16,1.67,37ZM338.27,412h0l-.16-.09v26.58l-3.58,2.06-10.72,6.19-8.54,4.93L301,459.87l0,0-.1-.06-1-.58-.52-.3-12.62-7.29-8.54-4.93-14.3-8.26V411.85l-.17.09h0l-8.55,4.93-14.3,8.26-3.58-2.07-10.72-6.19L218,412l-14.3-8.26V360.81h0l14.3-8.26,8.55-4.93.17-.1-.18-.1L218,342.48l-14.3-8.25V291.34h0l.15-.08,1.54-.89L216,284.21l2-1.12,1.32-.77,7.23-4.17,14.29-8.25,14.3,8.25,8.55,4.94.17.1V256.61h0l3.58-2.07.57-.32,10.15-5.86,8.09-4.68.45-.26,14.3-8.25.15.08.52.31,1,.58,8.31,4.79,4.31,2.49,1.68,1,6.86,4,14.3,8.25v26.58l.18-.1,8.54-4.94,14.3-8.25L364.7,272l1.73,1,9,5.19,7.36,4.26,1.18.68,14.3,8.25v42.89h0l-12.09,7L384,342.48l-.13.08-8.42,4.86-.17.1.18.1,8.54,4.93,14.3,8.26v42.88h0l-.14.08-1.4.81-.13.08L384,412l-8.54,4.93-14.3,8.26-14.3-8.26Zm46.3,154.78L352.43,502h0l9.7-4.82L391,482.88h0l0,0,8.05,8.15h0l-5.16,2.56-16.65,8.27,3.75,7.56,4.28,8.62,7.54-3.74,7.53-3.74h0l1.23,2.46,3.64,7.34h0l-15.07,7.48,9.5,19.13,11.84-5.87,11.83-5.88h0L425,546.67Zm103.59-78.56-14.32,17.08-24.68-20.68L432,480.43l-26.3-6.32h0l16-19.07,16.86,4.08,9.79,2.37-11-25.11h0l8.29-9.89,5.6,12.82,12.29,28.17,9.93,8.32,14.75,12.37Zm-3-126.73-12,5.75-3.08,1.48h0l-5.62-3.84-8.15-5.56,5.56-2.68,9.47-4.55h0l13.78,9.4Zm5.25,10.94-.66,8.8-.6,7.83-6.88,3.31-8.15,3.92h0l1.26-16.64,15-7.22ZM492,351.43h0L478.26,342l1.26-16.63,8.53,5.82,5.24,3.58Zm23.71,38.95-.67,8.95-13.78-9.41h0l.71-9.44.55-7.19h0l13.77,9.41Zm8.68-34.33h0l13.77,9.4-15,7.23h0l-13.77-9.41,15-7.22Zm-4-27.57-1,13-.28,3.62h0l-15,7.22,1.26-16.63,8.91-4.29,6.12-2.94ZM490.66,207.37h0l11.91,21.84-3.26,4.64-12.48,17.81,27.4-1.07h0l6.17,11.33h0l-44.69,1.68L453.8,275.55,447.43,279l-7.51-13.79-3.15-5.79L448.61,253,465,244l13.77-19.71,11.85-16.95Z"/></g></g></svg>